<svg width="153" height="230" viewBox="0 0 153 230" fill="none" xmlns="http://www.w3.org/2000/svg">
<g filter="url(#filter0_d_116_181)">
<path class="draw-path" d="M12.1603 52.7947C11.0889 56.2586 5.43565 66.5763 9.23246 68.729C16.1941 72.1187 37.869 63.1767 45.6355 60.3164C63.5432 53.3885 83.258 44.6444 101.255 37.8748C112.383 33.817 123.695 29.4623 135.599 28.0866C142.249 27.3443 150.371 28.7745 150.554 37.1474C150.421 46.5496 140.906 57.8521 134.932 64.6464C130.362 69.657 125.46 74.3524 120.258 78.7003C109.455 88.0678 95.8827 95.7331 82.0829 87.375C76.0495 83.7032 71.5614 77.9382 68.446 71.6684C60.4672 55.4124 66.9351 36.5338 75.6397 21.9999C77.3461 19.0287 79.1999 16.1451 81.1942 13.3598C84.3738 9.08918 87.6127 4.79385 92.2044 1.67132C95.231 -0.382322 99.4673 -0.99594 101.975 2.46804C104.044 5.50149 104.113 9.45042 104.128 12.86C103.896 19.9215 102.938 26.8148 100.672 33.4607C99.5316 36.7363 98.1707 39.9305 96.5987 43.0213C91.9625 52.2206 86.013 60.4847 79.476 68.3232C68.7817 81.2587 56.3643 92.8333 43.9271 103.928C40.8759 106.729 37.7653 109.371 35.0399 112.429C34.3718 113.115 33.8362 113.919 33.46 114.8C33.46 114.8 33.46 114.77 33.46 114.716C33.4334 114.592 33.3776 114.477 33.297 114.379C33.2318 114.295 33.1493 114.226 33.0551 114.176H33.1884C34.9659 114.176 36.9013 113.617 38.6787 113.187C41.3943 112.489 45.4923 111.262 48.2374 110.44C59.3711 107.159 70.9492 102.958 82.4038 100.88C86.7803 100.143 91.2272 99.9173 95.6556 100.207C98.3372 100.268 101.011 100.514 103.659 100.944C112.877 102.428 119.607 108.916 121.873 117.952C123.571 124.385 123.428 131.417 123.305 137.939C123.211 140.908 123.132 145.184 122.925 148.128C122.115 162.038 118.746 175.678 112.986 188.36C111.588 191.433 110.186 194.461 108.685 197.539C102.143 211.074 92.1106 227.528 74.5288 220.189C69.3939 217.937 65.2071 214.132 61.5386 210.054C48.6176 195.342 47.6055 173.386 50.5333 154.883C53.9694 134.642 61.9555 115.451 73.8869 98.7616C78.0096 93.3182 86.4327 82.669 94.0214 83.6735C100.484 85.0195 101.867 94.3426 101.724 99.8256C100.558 119.664 76.7901 134.96 61.0005 143.571C53.0513 147.658 44.9442 151.8 36.1311 153.888C34.5511 154.156 32.5219 154.185 31.8998 151.756C31.8004 151.149 31.8973 150.526 32.1763 149.979C32.358 149.626 32.5783 149.294 32.8329 148.989C35.5781 145.941 38.7577 143.754 42.0016 141.359C50.5419 135.365 60.1694 131.104 70.3419 128.814C98.4847 122.782 104.572 140.196 92.9302 163.058C86.3981 175.504 76.9875 186.286 65.0244 193.769C60.5374 196.52 55.7665 198.776 50.795 200.499C48.1365 201.46 45.3588 202.051 42.5397 202.255C38.738 202.513 34.6943 200.687 34.3388 196.317C34.087 191.695 36.6199 187.632 38.7824 183.862C42.424 177.744 47.2103 172.389 52.8785 168.091C66.8314 157.699 83.3468 151.473 100.4 148.816C106.271 147.93 112.146 147.381 118.042 146.931C124.909 146.436 131.925 146.144 138.808 147.129C142.56 147.713 146.416 148.757 149.636 151.018C156.493 155.744 160.419 164.335 159.964 172.534L158.143 172.915C157.338 171.431 156.602 169.946 155.807 168.561C153.585 164.602 150.914 160.91 147.414 158.08C145.299 156.299 142.737 155.135 140.008 154.715C138.517 154.427 137.01 154.231 135.495 154.126C129.945 153.725 124.218 154.066 118.664 154.512C109.776 155.249 100.598 156.12 92.0267 158.134C85.7502 159.575 79.6225 161.603 73.724 164.191C62.5755 169.026 51.6639 175.786 45.1664 186.321C44.1094 187.966 43.1483 189.671 42.2879 191.428C41.6708 192.784 40.9993 194.273 40.9993 195.654C40.9993 195.753 41.0339 195.748 40.9993 195.654C40.9422 195.552 40.8688 195.46 40.7821 195.382C40.7031 195.347 40.7821 195.382 40.8709 195.411C43.3742 195.773 46.1341 194.887 48.6225 194.07C59.0952 190.324 68.4053 183.891 75.6248 175.414C81.7866 168.264 87.0252 160.029 89.8197 151.028C90.9059 147.257 91.8736 142.645 90.3134 138.959C87.6522 133.327 76.8049 134.465 71.5812 135.307C58.8181 137.484 45.754 143.432 36.5261 152.132C36.7033 151.766 36.7537 151.351 36.6693 150.954C36.6003 150.559 36.4263 150.19 36.1656 149.886C35.9049 149.582 35.5672 149.354 35.188 149.227C35.0964 149.192 34.9995 149.174 34.9017 149.172C35.0672 149.17 35.2322 149.156 35.3954 149.128C43.6111 147.237 51.4072 143.462 59.0008 139.701C72.3909 132.61 88.5656 122.51 95.4038 108.525C97.4392 104.364 98.1081 99.6648 97.3146 95.0997C96.8801 92.6898 95.6606 87.5779 92.6537 87.865C83.337 89.8444 71.7243 109.891 67.7695 118.392C57.1987 140.7 50.553 169.818 59.7167 193.556C61.9763 199.282 65.6025 204.366 70.2777 208.362C72.4166 210.34 74.8717 211.944 77.5405 213.107C82.7544 215.25 87.3856 213.964 91.3206 209.698C97.6256 202.701 101.047 193.585 104.997 184.802C110.722 171.505 113.743 157.196 113.884 142.715C113.963 138.023 114.176 132.634 113.884 128.092C113.568 121.49 112.225 114.206 105.619 111.187C103.151 110.029 100.272 109.604 97.4084 109.257C94.3077 108.931 91.059 108.505 87.9731 108.486C83.179 108.436 78.5428 109.04 73.724 109.792C64.0715 111.336 54.0734 113.558 44.4851 115.829C42.8557 116.215 41.2264 116.606 39.5477 116.967C37.8382 117.377 36.1052 117.681 34.3586 117.878C33.449 117.993 32.5252 117.898 31.6579 117.601C30.0187 117.007 29.3274 115.008 30.0088 113.399C30.9123 111.257 32.5713 109.698 34.1068 108.114C41.3647 101.132 48.9731 94.7533 56.0434 87.6027C61.7855 81.8327 67.577 75.5777 72.7316 69.2584C79.8956 60.3907 86.6499 50.8301 91.454 40.5173C93.5321 36.2001 95.1394 31.6707 96.2481 27.0078C97.2443 22.3269 97.7916 17.5612 97.8824 12.7758C97.9167 11.2859 97.8226 9.79582 97.6009 8.32215C97.5189 7.53155 97.2662 6.76831 96.8603 6.08542C96.8603 6.08542 96.885 6.08542 96.9048 6.11511C96.9242 6.13114 96.9487 6.13989 96.9739 6.13985C96.9739 6.13985 97.0134 6.16954 97.0381 6.16954C97.0628 6.16954 97.1072 6.19923 97.1368 6.16954H97.0924C95.2903 6.69903 93.7153 8.21824 92.1946 9.66321C88.3336 13.5379 84.8675 18.2192 81.8558 22.8709C69.4532 41.6753 61.82 63.6963 80.1277 81.5506C85.9538 86.994 94.0312 89.0427 101.59 86.227C110.739 82.8917 117.75 75.4194 124.504 68.6201C130.429 62.38 145.172 44.778 144.298 36.4892C143.696 32.6888 134.335 34.4009 131.496 34.9205C121.903 36.8703 112.64 40.2798 103.397 43.6745C84.7589 50.6767 66.3032 58.6191 47.5018 65.4085C37.9875 68.7784 28.3449 72.2424 18.1987 73.6528C-0.237353 76.127 0.98217 62.4344 12.1603 52.7947Z" fill="black"/>
</g>
<defs>
<filter id="filter0_d_116_181" x="0" y="0" width="164" height="230" filterUnits="userSpaceOnUse" color-interpolation-filters="sRGB">
<feFlood flood-opacity="0" result="BackgroundImageFix"/>
<feColorMatrix in="SourceAlpha" type="matrix" values="0 0 0 0 0 0 0 0 0 0 0 0 0 0 0 0 0 0 127 0" result="hardAlpha"/>
<feOffset dy="4"/>
<feGaussianBlur stdDeviation="2"/>
<feComposite in2="hardAlpha" operator="out"/>
<feColorMatrix type="matrix" values="0 0 0 0 0 0 0 0 0 0 0 0 0 0 0 0 0 0 0.25 0"/>
<feBlend mode="normal" in2="BackgroundImageFix" result="effect1_dropShadow_116_181"/>
<feBlend mode="normal" in="SourceGraphic" in2="effect1_dropShadow_116_181" result="shape"/>
</filter>
</defs>
</svg>
